#!OML:ASF E:\Mandelcareful walks\Project 1\Capture day 1\Session 1\Subject1.ASF
:FULLY-SPECIFIED
:DEGREES
528
root 5.70897 16.9227 -0.641211 -156.265 -82.8006 156.744
lowerback -2.11552 0.280109 -4.08364
upperback 3.09683 0.497569 0.596618
thorax 4.34937 0.0909534 2.93599
lowerneck -18.7804 0.164148 -4.12274
upperneck 33.688 0.938296 -0.411796
head 14.8208 -0.529953 0.628577
rclavicle -7.95139e-015 1.35174e-014
rhumerus -27.6582 -7.98478 -81.8818
rradius 26.2225
rwrist -5.70758
rhand -8.22286 -31.6443
rfingers 7.12502
rthumb 17.6944 -60.8592
lclavicle -7.95139e-015 1.35174e-014
lhumerus -26.3871 1.75957 90.4021
lradius 24.0074
lwrist 6.24786
lhand -22.5365 -12.1513
lfingers 7.12502
lthumb 3.8907 17.7929
rfemur 1.0469 -0.426988 10.2206
rtibia 8.93335
rfoot -10.303 -18.5663
rtoes -1.04355
lfemur -4.1819 4.12441 -18.0379
ltibia 23.469
lfoot -19.1553 15.5583
ltoes 5.42069
529
root 5.67792 16.9168 -0.607912 -154.062 -82.5418 154.4
lowerback -2.45289 0.228943 -4.39846
upperback 3.2876 0.466756 0.424966
thorax 4.7441 0.0543686 2.93684
lowerneck -18.8676 -0.1915 -4.63147
upperneck 33.2832 0.571993 -0.270022
head 14.6636 -0.711061 0.712917
rclavicle 8.00108e-015 -1.66979e-014
rhumerus -27.4031 -8.25412 -81.8406
rradius 26.0537
rwrist -5.57283
rhand -8.08694 -31.6426
rfingers 7.12502
rthumb 17.8252 -60.8456
lclavicle 8.00108e-015 -1.66979e-014
lhumerus -26.2045 1.97889 90.2862
lradius 23.9073
lwrist 6.02874
lhand -21.6764 -11.5184
lfingers 7.12502
lthumb 4.72126 18.409
rfemur 1.43033 -0.300114 9.58756
rtibia 8.59596
rfoot -10.0689 -18.5786
rtoes -1.74423
lfemur -3.92689 4.22405 -18.6018
ltibia 23.562
lfoot -19.3736 15.5627
ltoes 5.4834
530
root 5.66907 16.9183 -0.580515 -155.036 -82.4399 155.459
lowerback -2.52008 0.204059 -4.36628
upperback 3.26867 0.435915 0.413534
thorax 4.76526 0.0405012 2.90537
lowerneck -18.8587 -0.604682 -5.19902
upperneck 32.8729 0.115688 -0.0823574
head 14.4904 -0.931876 0.809568
rclavicle 1.08835e-014 3.97569e-015
rhumerus -27.255 -8.34038 -81.8586
rradius 25.9671
rwrist -5.55722
rhand -8.11461 -31.4368
rfingers 7.12502
rthumb 17.7986 -60.6423
lclavicle 1.08835e-014 3.97569e-015
lhumerus -26.1352 2.22983 90.2366
lradius 23.7215
lwrist 5.7363
lhand -20.2636 -11.2524
lfingers 7.12502
lthumb 6.08534 18.6402
rfemur 1.49599 -0.168329 9.58513
rtibia 8.25566
rfoot -9.91537 -18.5529
rtoes -1.41727
lfemur -4.00388 4.32183 -18.6193
ltibia 23.6314
lfoot -19.4588 15.5825
ltoes 5.652
531
root 5.66681 16.9206 -0.550728 -155.454 -82.2546 155.937
lowerback -2.41717 0.208012 -4.45622
upperback 3.17841 0.440974 0.377556
thorax 4.61181 0.046192 2.91759
lowerneck -18.7862 -1.02151 -5.55875
upperneck 32.5526 -0.380587 -0.0436328
head 14.3504 -1.17006 0.80155
rclavicle 8.17502e-015 1.59028e-014
rhumerus -27.2682 -8.42175 -81.8759
rradius 25.9517
rwrist -5.47882
rhand -8.10789 -31.1837
rfingers 7.12502
rthumb 17.805 -60.3886
lclavicle 8.17502e-015 1.59028e-014
lhumerus -26.1928 2.15009 90.2857
lradius 23.6429
lwrist 5.82447
lhand -19.5517 -11.1486
lfingers 7.12502
lthumb 6.77259 18.7231
rfemur 1.47276 0.00973519 9.47299
rtibia 8.03233
rfoot -9.65049 -18.5255
rtoes -1.32272
lfemur -4.04747 4.33146 -18.7693
ltibia 23.6115
lfoot -19.5284 15.7759
ltoes 5.55129
532
root 5.65308 16.9185 -0.51933 -155.02 -81.9915 155.42
lowerback -2.32464 0.195503 -4.66613
upperback 3.14618 0.431053 0.300842
thorax 4.52652 0.0379521 2.9543
lowerneck -18.8135 -1.40416 -5.83899
upperneck 32.3787 -0.795791 -0.168585
head 14.2985 -1.39349 0.726335
rclavicle -1.58779e-014 1.19271e-014
rhumerus -27.3039 -8.42884 -81.8598
rradius 25.895
rwrist -5.42762
rhand -8.17982 -30.9913
rfingers 7.12502
rthumb 17.7358 -60.2025
lclavicle -1.58779e-014 1.19271e-014
lhumerus -26.3654 2.25559 90.2752
lradius 23.745
lwrist 5.90053
lhand -19.2875 -10.988
lfingers 7.12502
lthumb 7.02763 18.8754
rfemur 1.7383 0.240122 9.14621
rtibia 7.62705
rfoot -9.27212 -18.5847
rtoes -1.66462
lfemur -3.91372 4.41098 -19.0885
ltibia 23.6607
lfoot -19.6832 15.9509
ltoes 5.23962
533
root 5.63555 16.9167 -0.494664 -155.496 -81.7865 155.862
lowerback -2.26178 0.18025 -4.81915
upperback 3.03897 0.413648 0.282548
thorax 4.38023 0.0307407 3.01935
lowerneck -18.7309 -1.73721 -6.11403
upperneck 32.2347 -1.13295 -0.357995
head 14.2338 -1.59531 0.638074
rclavicle 3.93594e-014 -1.43125e-014
rhumerus -27.5623 -7.93891 -81.9378
rradius 26.002
rwrist -5.81053
rhand -8.4056 -31.0063
rfingers 7.12502
rthumb 17.5185 -60.2369
lclavicle 3.93594e-014 -1.43125e-014
lhumerus -26.6101 2.34699 90.2529
lradius 23.7218
lwrist 5.79159
lhand -19.2415 -11.0444
lfingers 7.12502
lthumb 7.07205 18.8175
rfemur 2.04522 0.456666 9.02204
rtibia 7.13069
rfoot -8.98125 -18.663
rtoes -1.70211
lfemur -3.81486 4.57003 -19.2041
ltibia 23.7128
lfoot -19.8119 15.9716
ltoes 5.52006
534
root 5.62355 16.918 -0.46929 -156.546 -81.6829 157.014
lowerback -2.29717 0.160409 -4.85078
upperback 2.89062 0.388407 0.317796
thorax 4.24749 0.0239619 3.07202
lowerneck -18.3416 -2.04358 -6.55201
upperneck 31.8572 -1.4798 -0.308408
head 14.0025 -1.77953 0.678723
rclavicle 1.53064e-014 -1.98785e-015
rhumerus -27.847 -7.56602 -81.9529
rradius 26.1298
rwrist -6.02802
rhand -8.48244 -30.9338
rfingers 7.12502
rthumb 17.4446 -60.171
lclavicle 1.53064e-014 -1.98785e-015
lhumerus -26.7679 2.12929 90.3274
lradius 23.5415
lwrist 6.02194
lhand -19.4766 -11.3036
lfingers 7.12502
lthumb 6.84513 18.5657
rfemur 2.29267 0.599916 9.06949
rtibia 6.4949
rfoot -8.71374 -18.7568
rtoes -1.79161
lfemur -3.88074 4.65056 -19.1861
ltibia 23.75
lfoot -19.959 15.9744
ltoes 6.27668
535
root 5.61131 16.924 -0.438988 -158.429 -81.6253 159.074
lowerback -2.6501 0.163878 -4.55798
upperback 2.94357 0.400792 0.309606
thorax 4.5026 0.0327904 2.90257
lowerneck -18.3284 -2.46312 -6.93258
upperneck 31.4987 -1.99702 -0.163632
head 13.8728 -2.01049 0.716252
rclavicle -7.60351e-015 7.95139e-016
rhumerus -27.6724 -7.84437 -81.9466
rradius 26.103
rwrist -5.7757
rhand -8.21368 -30.9345
rfingers 7.12502
rthumb 17.7032 -60.1486
lclavicle -7.60351e-015 7.95139e-016
lhumerus -26.6576 2.25874 90.2445
lradius 23.4869
lwrist 6.12471
lhand -19.779 -11.8733
lfingers 7.12502
lthumb 6.55313 18.0053
rfemur 2.25846 0.734337 9.25695
rtibia 6.20403
rfoot -8.62098 -18.8397
rtoes -2.34773
lfemur -3.98038 4.72122 -19.0494
ltibia 23.6956
lfoot -20.0618 16.1026
ltoes 6.5241
536
root 5.59601 16.9291 -0.411674 -160.302 -81.4799 161.005
lowerback -2.98027 0.206156 -4.29697
upperback 3.11318 0.465299 0.25107
thorax 4.86353 0.0627614 2.70273
lowerneck -18.5059 -2.87852 -7.22583
upperneck 31.1615 -2.5301 0.0406602
head 13.7971 -2.22687 0.757539
rclavicle -1.41634e-014 7.35503e-015
rhumerus -27.2987 -8.17322 -82.0606
rradius 25.9872
rwrist -5.65591
rhand -7.91043 -31.3915
rfingers 7.12502
rthumb 17.995 -60.579
lclavicle -1.41634e-014 7.35503e-015
lhumerus -26.4175 2.63869 90.011
lradius 23.5182
lwrist 5.68969
lhand -19.7357 -12.1593
lfingers 7.12502
lthumb 6.59494 17.718
rfemur 2.24262 0.956936 9.41836
rtibia 6.06792
rfoot -8.48248 -18.8219
rtoes -2.67688
lfemur -3.91016 4.79433 -18.9251
ltibia 23.5912
lfoot -20.1707 16.2582
ltoes 6.79834
537
root 5.58585 16.9266 -0.3731 -155.625 -81.2375 156.37
lowerback -3.03427 0.13487 -4.97623
upperback 3.07287 0.417634 -0.0145951
thorax 4.85719 0.0202595 2.8047
lowerneck -18.7656 -3.16032 -7.38374
upperneck 31.1066 -2.84353 0.0130156
head 13.8487 -2.3779 0.71558
rclavicle -4.87022e-015 0
rhumerus -27.1997 -8.23094 -82.071
rradius 25.8201
rwrist -5.65921
rhand -7.86275 -31.5606
rfingers 7.12502
rthumb 18.0409 -60.7439
lclavicle -4.87022e-015 0
lhumerus -26.3369 2.59064 89.9576
lradius 23.407
lwrist 5.45266
lhand -19.4388 -11.7359
lfingers 7.12502
lthumb 6.88154 18.1323
rfemur 2.20718 0.905267 8.36969
rtibia 5.99516
rfoot -8.19896 -18.8096
rtoes -3.4223
lfemur -3.8795 4.62305 -19.9157
ltibia 23.4401
lfoot -20.3278 16.2824
ltoes 7.61783
538
root 5.57221 16.9264 -0.344261 -154.467 -81.0047 155.221
lowerback -3.022 0.0877935 -5.33081
upperback 3.01345 0.373466 -0.0794586
thorax 4.7924 -0.0101573 2.93285
lowerneck -18.9769 -3.32559 -7.5207
upperneck 31.0818 -2.97865 -0.0836594
head 13.8937 -2.46228 0.673092
rclavicle -1.59276e-014 -9.34288e-015
rhumerus -27.2922 -8.12476 -82.0568
rradius 25.861
rwrist -5.61241
rhand -8.09779 -31.1023
rfingers 7.12502
rthumb 17.8147 -60.3063
lclavicle -1.59276e-014 -9.34288e-015
lhumerus -26.3078 2.65712 89.9581
lradius 23.1574
lwrist 5.5117
lhand -19.424 -11.4226
lfingers 7.12502
lthumb 6.89583 18.4451
rfemur 2.18975 1.03311 7.95778
rtibia 5.95899
rfoot -7.99217 -18.9198
rtoes -4.45848
lfemur -3.76656 4.55489 -20.3085
ltibia 23.2909
lfoot -20.4783 16.299
ltoes 8.33831
539
root 5.55657 16.926 -0.320179 -155.262 -80.7951 156.008
lowerback -3.10401 0.0906031 -5.41233
upperback 3.00884 0.387118 -0.090092
thorax 4.83328 -0.00701533 2.96903
lowerneck -18.9869 -3.54086 -7.66875
upperneck 30.916 -3.20968 -0.154544
head 13.8388 -2.58207 0.630551
rclavicle -1.86361e-014 1.63003e-014
rhumerus -27.4372 -7.82093 -82.1728
rradius 26.051
rwrist -6.00697
rhand -8.62124 -30.7321
rfingers 7.12502
rthumb 17.311 -59.9811
lclavicle -1.86361e-014 1.63003e-014
lhumerus -26.3451 2.8326 89.9008
lradius 23.0677
lwrist 5.56945
lhand -19.5244 -11.5061
lfingers 7.12502
lthumb 6.79897 18.3647
rfemur 2.25584 1.27247 7.92413
rtibia 5.82842
rfoot -7.89664 -19.04
rtoes -5.04638
lfemur -3.63843 4.58561 -20.3791
ltibia 23.1777
lfoot -20.5177 16.4813
ltoes 8.21927
540
root 5.54439 16.9262 -0.295627 -156.237 -80.6077 156.991
lowerback -3.04395 0.141588 -5.44036
upperback 2.89515 0.451079 -0.0961162
thorax 4.67392 0.0311566 2.98229
lowerneck -18.6553 -3.75532 -7.88208
upperneck 30.6486 -3.49914 -0.100545
head 13.6732 -2.71807 0.645954
rclavicle -1.62879e-014 8.54774e-015
rhumerus -27.6621 -7.41641 -82.2691
rradius 26.0401
rwrist -6.73613
rhand -9.09079 -30.5036
rfingers 7.12502
rthumb 16.859 -59.7918
lclavicle -1.62879e-014 8.54774e-015
lhumerus -26.5987 2.84946 89.8627
lradius 23.1193
lwrist 5.4494
lhand -19.5815 -11.4862
lfingers 7.12502
lthumb 6.74385 18.3864
rfemur 2.70241 1.50945 7.95475
rtibia 4.98163
rfoot -7.67086 -19.112
rtoes -4.66205
lfemur -3.62291 4.75239 -20.3912
ltibia 23.2182
lfoot -20.554 16.5852
ltoes 7.88735
541
root 5.53317 16.9314 -0.267252 -156.901 -80.4414 157.725
lowerback -2.93657 0.163257 -5.45464
upperback 2.72367 0.471263 -0.115135
thorax 4.43141 0.052034 2.9706
lowerneck -18.6496 -3.96213 -8.00291
upperneck 30.6246 -3.77003 -0.078179
head 13.6793 -2.84541 0.627644
rclavicle -2.56059e-014 6.36111e-015
rhumerus -27.9122 -7.19657 -82.3122
rradius 26.1078
rwrist -6.91493
rhand -9.5516 -30.088
rfingers 7.12502
rthumb 16.4154 -59.4134
lclavicle -2.56059e-014 6.36111e-015
lhumerus -26.7801 3.10563 89.7678
lradius 23.0309
lwrist 5.15924
lhand -19.8121 -11.5949
lfingers 7.12502
lthumb 6.52123 18.2847
rfemur 3.23281 1.70187 7.92051
rtibia 3.79763
rfoot -7.26587 -19.1573
rtoes -3.93537
lfemur -3.71431 4.91127 -20.4462
ltibia 23.313
lfoot -20.6576 16.6088
ltoes 7.98565
